# xmcd CD database file generated by Grip 2.91
# 
# Track frame offsets:
#       150
#       14610
#       26122
#       39800
#       54695
#       66747
#       83782
#       93450
#       114202
#       127545
#       140792
#       142492
#       155635
#       167617
#       181620
#       194787
#       209657
#       221297
#       228850
#       240382
#       256250
#       270687
#       296892
#       319947
#       335245
# 
# Disc length: 4663 seconds
# 
# Revision: 3
# Processed by: cddbd v1.4b41PL1 Copyright (c) Steve Scherf et al.
# Submitted via: Grip 2.91
# 
DISCID=82123519
DTITLE=Michael Nesmith - Listen To The Band
DYEAR=1900
DGENRE=
TTITLE0=Silver Moon
TTITLE1=Listen To The Band
TTITLE2=Different Drum
TTITLE3=Some Of Shelly's Blues
TTITLE4=Mama Nantucket
TTITLE5=Harmony Constant
TTITLE6=Grand Ennui
TTITLE7=Bonaparte's Retreat
TTITLE8=I've Just Begun To Care (Propinquity)
TTITLE9=Lady Of The Valley
TTITLE10=First National Rag
TTITLE11=The Keys To The Car
TTITLE12=Two Different Roads
TTITLE13=Nevada Fighter
TTITLE14=I Fall To Pieces
TTITLE15=Rainmaker
TTITLE16=Calico Girlfriend
TTITLE17=Nine Times Blue
TTITLE18=Little Red Rider
TTITLE19=Conversations
TTITLE20=Joanne
TTITLE21=Beyond The Blue Horizon
TTITLE22=Hollywood
TTITLE23=Bye, Bye, Bye
TTITLE24=The Crippled Lion
EXTD=
EXTT0=
EXTT1=
EXTT2=
EXTT3=
EXTT4=
EXTT5=
EXTT6=
EXTT7=
EXTT8=
EXTT9=
EXTT10=
EXTT11=
EXTT12=
EXTT13=
EXTT14=
EXTT15=
EXTT16=
EXTT17=
EXTT18=
EXTT19=
EXTT20=
EXTT21=
EXTT22=
EXTT23=
EXTT24=
PLAYORDER=
